<?xml version="1.0" encoding="UTF-8"?>
<svg xmlns="http://www.w3.org/2000/svg" xmlns:xlink="http://www.w3.org/1999/xlink" width="300px" height="75px" viewBox="0 0 300 75" version="1.1">
<g id="surface1">
<path style=" stroke:none;fill-rule:nonzero;fill:rgb(98.823529%,98.823529%,98.823529%);fill-opacity:1;" d="M 0 0 C 99 0 198 0 300 0 C 300 24.75 300 49.5 300 75 C 201 75 102 75 0 75 C 0 50.25 0 25.5 0 0 Z M 0 0 "/>
<path style=" stroke:none;fill-rule:nonzero;fill:rgb(20.784314%,20.784314%,20.784314%);fill-opacity:1;" d="M 192.539062 8.613281 C 194.175781 9.425781 194.175781 9.425781 195.523438 10.640625 C 195.859375 12.265625 195.859375 12.265625 195.8125 14.164062 C 195.808594 14.5 195.804688 14.835938 195.800781 15.179688 C 195.785156 16.242188 195.746094 17.304688 195.707031 18.371094 C 195.695312 19.09375 195.679688 19.816406 195.667969 20.539062 C 195.636719 22.308594 195.582031 24.078125 195.523438 25.84375 C 198.21875 24.417969 200.300781 23.035156 202.378906 21.1875 C 205.070312 18.800781 205.070312 18.800781 206.714844 18.242188 C 209.234375 18.054688 209.234375 18.054688 211.941406 18.242188 C 213.890625 19.433594 214.792969 20.203125 215.203125 21.972656 C 214.816406 23.832031 213.574219 24.550781 211.660156 25.875 C 208.632812 27.898438 208.632812 27.898438 206.714844 30.40625 C 207.339844 31.691406 207.339844 31.691406 208.53125 32.992188 C 208.9375 33.492188 209.347656 33.988281 209.769531 34.503906 C 210.648438 35.542969 211.53125 36.578125 212.414062 37.617188 C 215.03125 40.8125 216.335938 42.949219 215.671875 46.621094 C 214 48.183594 212.59375 48.152344 209.792969 48.523438 C 207.730469 48.460938 206.960938 48.304688 205.464844 47.316406 C 202.707031 44.609375 198.507812 40.351562 198.507812 36.992188 C 197.523438 36.992188 196.539062 36.992188 195.523438 36.992188 C 195.558594 37.628906 195.589844 38.261719 195.628906 38.917969 C 195.65625 39.753906 195.683594 40.589844 195.707031 41.425781 C 195.746094 42.054688 195.746094 42.054688 195.785156 42.695312 C 195.859375 45.789062 195.859375 45.789062 194.183594 47.410156 C 191.816406 48.460938 190.082031 48.347656 187.3125 48.140625 C 185.074219 47.128906 185.074219 47.128906 184.328125 45.609375 C 184.246094 44.492188 184.210938 43.375 184.195312 42.257812 C 184.191406 41.917969 184.1875 41.582031 184.179688 41.234375 C 184.167969 40.117188 184.15625 39 184.152344 37.882812 C 184.148438 37.5 184.144531 37.117188 184.140625 36.726562 C 184.125 34.707031 184.113281 32.683594 184.109375 30.664062 C 184.101562 28.578125 184.074219 26.492188 184.042969 24.40625 C 184.023438 22.800781 184.019531 21.199219 184.015625 19.59375 C 184.011719 18.824219 184.003906 18.054688 183.988281 17.285156 C 183.972656 16.210938 183.972656 15.132812 183.976562 14.058594 C 183.972656 13.445312 183.96875 12.832031 183.964844 12.203125 C 184.757812 8.808594 187.875 8.164062 192.539062 8.613281 Z M 192.539062 8.613281 "/>
<path style=" stroke:none;fill-rule:nonzero;fill:rgb(21.176471%,21.176471%,21.176471%);fill-opacity:1;" d="M 168.65625 21.789062 C 171.070312 23.15625 172.765625 24.359375 173.878906 26.351562 C 174.042969 27.746094 174.121094 29.074219 174.113281 30.46875 C 174.125 30.835938 174.136719 31.207031 174.148438 31.585938 C 174.152344 32.65625 174.152344 32.65625 173.878906 34.460938 C 171.238281 35.65625 170.140625 35.59375 167.015625 35.570312 C 166.113281 35.570312 165.210938 35.566406 164.28125 35.5625 C 162.871094 35.550781 162.871094 35.550781 161.425781 35.535156 C 160.476562 35.53125 159.527344 35.527344 158.546875 35.523438 C 156.195312 35.511719 153.84375 35.492188 151.492188 35.472656 C 151.59375 36.207031 151.703125 36.9375 151.8125 37.671875 C 151.871094 38.082031 151.933594 38.488281 151.992188 38.910156 C 152.316406 40.398438 152.699219 41.136719 154.476562 42.0625 C 156.960938 42.484375 156.960938 42.484375 159.703125 42.0625 C 161.027344 41.382812 161.027344 41.382812 162.265625 40.539062 C 164.214844 39.277344 165.378906 38.785156 168.097656 38.734375 C 170.894531 39.019531 170.894531 39.019531 172.386719 39.558594 C 173.609375 41.164062 173.496094 42.316406 173.132812 44.085938 C 170.484375 46.644531 167.089844 47.609375 162.6875 48.140625 C 156.050781 48.449219 149.609375 48.640625 143.890625 46.050781 C 140.128906 43.695312 138.660156 40.988281 138.382812 37.550781 C 138.367188 36.457031 138.371094 35.363281 138.386719 34.269531 C 138.367188 33.726562 138.351562 33.183594 138.332031 32.621094 C 138.34375 28.882812 139.285156 25.886719 142.539062 22.804688 C 149.859375 18.585938 160.492188 18.648438 168.65625 21.789062 Z M 168.65625 21.789062 "/>
<path style=" stroke:none;fill-rule:nonzero;fill:rgb(21.176471%,21.176471%,21.176471%);fill-opacity:1;" d="M 117.070312 19.636719 C 117.589844 19.625 118.109375 19.617188 118.640625 19.605469 C 123.089844 19.582031 126.03125 20.328125 129.335938 22.328125 C 131.664062 24.144531 131.527344 25.5 131.34375 27.871094 C 129.851562 29.390625 129.851562 29.390625 128.316406 29.722656 C 126.550781 29.867188 124.910156 29.972656 123.132812 29.898438 C 121.6875 29.042969 121.6875 29.042969 120.894531 27.871094 C 120.601562 27.496094 120.3125 27.117188 120.007812 26.730469 C 119.808594 26.4375 119.609375 26.144531 119.402344 25.84375 C 117.925781 25.84375 116.449219 25.84375 114.925781 25.84375 C 114.679688 26.679688 114.433594 27.515625 114.179688 28.378906 C 116.476562 29.78125 118.773438 30.722656 121.546875 31.609375 C 126.007812 33.078125 130.15625 34.78125 132.089844 38.007812 C 132.484375 40.722656 132.25 42.519531 130.050781 44.832031 C 127.488281 46.941406 124.003906 48.054688 120.148438 48.648438 C 113.886719 49.019531 109.054688 48.539062 103.824219 46.148438 C 101.347656 44.511719 100.816406 43.621094 100.511719 41.269531 C 100.746094 39.527344 100.746094 39.527344 101.492188 38.546875 C 103.90625 37.675781 106.289062 37.730469 108.957031 38.007812 C 111.210938 38.976562 111.820312 40.386719 112.6875 42.0625 C 114.65625 42.226562 116.625 42.394531 118.65625 42.566406 C 119.285156 40.945312 119.285156 40.945312 118.65625 39.019531 C 115.410156 36.921875 111.648438 35.507812 107.460938 34.460938 C 107.460938 34.125 107.460938 33.789062 107.460938 33.445312 C 107.03125 33.320312 106.601562 33.195312 106.15625 33.066406 C 103.367188 32.015625 101.757812 30.945312 100.746094 28.886719 C 100.457031 26.792969 100.539062 25.613281 101.957031 23.722656 C 106.375 20.171875 110.5625 19.667969 117.070312 19.636719 Z M 117.070312 19.636719 "/>
<path style=" stroke:none;fill-rule:nonzero;fill:rgb(21.568627%,21.568627%,21.568627%);fill-opacity:1;" d="M 263.539062 19.585938 C 264.613281 19.578125 265.691406 19.5625 266.765625 19.542969 C 268.328125 19.515625 269.886719 19.503906 271.445312 19.5 C 272.378906 19.488281 273.308594 19.476562 274.269531 19.46875 C 277.726562 19.863281 278.925781 20.59375 281.34375 22.296875 C 282.195312 28.089844 272.152344 34.414062 267.242188 38.757812 C 266.359375 39.539062 266.359375 39.539062 265.671875 40.539062 C 266.492188 40.558594 267.308594 40.578125 268.152344 40.597656 C 269.238281 40.632812 270.324219 40.664062 271.410156 40.699219 C 272.214844 40.714844 272.214844 40.714844 273.039062 40.734375 C 276.332031 40.847656 278.730469 41.0625 281.34375 42.566406 C 281.785156 43.550781 281.785156 43.550781 281.714844 44.59375 C 281.707031 44.941406 281.699219 45.285156 281.691406 45.640625 C 281.21875 46.96875 280.753906 47.335938 279.105469 48.140625 C 277.113281 48.300781 275.296875 48.367188 273.304688 48.363281 C 272.734375 48.363281 272.167969 48.367188 271.582031 48.371094 C 270.382812 48.371094 269.183594 48.371094 267.980469 48.367188 C 266.148438 48.363281 264.320312 48.378906 262.488281 48.394531 C 261.320312 48.394531 260.152344 48.394531 258.984375 48.394531 C 258.167969 48.402344 258.167969 48.402344 257.332031 48.410156 C 254.636719 48.386719 253.070312 48.175781 250.75 47.214844 C 249.253906 46.113281 249.253906 46.113281 249.160156 44.457031 C 250.171875 42.179688 251.675781 40.601562 253.730469 38.703125 C 254.097656 38.355469 254.460938 38.007812 254.839844 37.648438 C 255.589844 36.929688 256.34375 36.21875 257.101562 35.503906 C 258.773438 33.925781 260.402344 32.324219 262.035156 30.722656 C 262.574219 30.195312 263.113281 29.667969 263.671875 29.125 C 264.914062 27.941406 264.914062 27.941406 265.671875 26.859375 C 264.269531 26.894531 264.269531 26.894531 262.839844 26.929688 C 261.605469 26.949219 260.375 26.96875 259.140625 26.984375 C 258.527344 27 257.910156 27.019531 257.277344 27.035156 C 252.707031 27.085938 252.707031 27.085938 250.335938 25.933594 C 248.878906 24.449219 248.871094 23.539062 249.253906 21.789062 C 252.429688 18.8125 258.691406 19.613281 263.539062 19.585938 Z M 263.539062 19.585938 "/>
<path style=" stroke:none;fill-rule:nonzero;fill:rgb(3.137255%,78.823529%,96.470588%);fill-opacity:1;" d="M 41.042969 9.628906 C 39.988281 11.144531 38.761719 12.492188 37.359375 13.871094 C 32.121094 19.179688 30.457031 24.023438 31.34375 30.40625 C 32.519531 33.210938 34.484375 34.855469 38.058594 36.488281 C 40.546875 36.941406 40.546875 36.941406 43.144531 37.121094 C 44.011719 37.195312 44.878906 37.273438 45.769531 37.347656 C 46.425781 37.398438 47.085938 37.449219 47.761719 37.5 C 46.539062 39.214844 45.574219 40.398438 43.285156 41.554688 C 39.761719 42.292969 36.792969 42.3125 33.441406 41.238281 C 28.34375 39.351562 25.398438 37.132812 22.949219 33.636719 C 22.691406 33.277344 22.433594 32.914062 22.171875 32.542969 C 18.691406 27.476562 17.945312 22.292969 18.65625 16.722656 C 19.34375 15.476562 19.816406 14.84375 21.46875 14.109375 C 22.25 13.878906 22.25 13.878906 23.050781 13.648438 C 23.628906 13.476562 24.207031 13.304688 24.800781 13.125 C 25.707031 12.867188 25.707031 12.867188 26.632812 12.605469 C 27.222656 12.429688 27.8125 12.253906 28.421875 12.074219 C 36.773438 9.628906 36.773438 9.628906 41.042969 9.628906 Z M 41.042969 9.628906 "/>
<path style=" stroke:none;fill-rule:nonzero;fill:rgb(19.607843%,71.764706%,50.196078%);fill-opacity:1;" d="M 50.746094 35.472656 C 53.699219 36.414062 55.96875 37.5 57.460938 39.527344 C 57.675781 42.882812 56.558594 45.425781 53.632812 48.125 C 51.265625 49.875 48.5625 51.042969 45.523438 52.195312 C 45.027344 52.394531 44.535156 52.59375 44.027344 52.796875 C 36.574219 55.585938 27.539062 55.917969 19.261719 54.960938 C 16.304688 53.921875 15.546875 52.40625 14.414062 50.390625 C 14.191406 50.023438 13.972656 49.660156 13.746094 49.28125 C 13.125 48.230469 12.527344 47.175781 11.941406 46.113281 C 11.667969 45.621094 11.394531 45.128906 11.113281 44.617188 C 10.296875 43.039062 9.703125 41.714844 9.703125 40.035156 C 11.898438 40.738281 13.828125 41.558594 15.8125 42.503906 C 23.703125 46.121094 30.851562 47.101562 40.296875 46.621094 C 43.921875 45.972656 47.015625 44.601562 49.328125 42.5625 C 50.792969 40.359375 50.683594 37.855469 50.746094 35.472656 Z M 50.746094 35.472656 "/>
<path style=" stroke:none;fill-rule:nonzero;fill:rgb(95.686275%,2.352941%,35.686275%);fill-opacity:1;" d="M 78.359375 16.722656 C 79.5 17.921875 80.277344 18.910156 81.0625 20.207031 C 81.28125 20.542969 81.5 20.882812 81.722656 21.230469 C 86.566406 28.898438 86.566406 28.898438 86.566406 31.417969 C 86.074219 31.417969 85.582031 31.417969 85.074219 31.417969 C 84.550781 31.054688 84.027344 30.6875 83.488281 30.308594 C 77.453125 26.117188 69.113281 24.25 60.585938 24.101562 C 56.207031 24.214844 52.179688 24.453125 48.835938 26.585938 C 46.191406 28.667969 45.425781 30.0625 45.101562 32.75 C 45.039062 33.257812 44.976562 33.765625 44.914062 34.289062 C 44.867188 34.679688 44.824219 35.070312 44.777344 35.472656 C 41.460938 34.347656 39.769531 33.148438 38.058594 30.914062 C 37.398438 28.226562 38.285156 26.554688 40.496094 24.382812 C 48.582031 17.679688 65.796875 12.566406 78.359375 16.722656 Z M 78.359375 16.722656 "/>
<path style=" stroke:none;fill-rule:nonzero;fill:rgb(96.078431%,69.411765%,2.352941%);fill-opacity:1;" d="M 58.957031 28.886719 C 66.070312 30.496094 70.355469 34.128906 73.664062 38.542969 C 76.992188 43.699219 78.105469 49.539062 76.457031 55.09375 C 74.828125 56.832031 72.453125 57.359375 69.730469 58.085938 C 68.921875 58.3125 68.921875 58.3125 68.097656 58.542969 C 66.550781 58.972656 64.992188 59.386719 63.433594 59.796875 C 62.707031 59.988281 61.976562 60.179688 61.230469 60.378906 C 57.070312 61.398438 57.070312 61.398438 54.476562 60.8125 C 54.929688 60.410156 55.378906 60.011719 55.84375 59.601562 C 62.082031 53.898438 65.324219 48.300781 64.179688 41.046875 C 63.273438 37.90625 61.222656 36.253906 57.460938 34.460938 C 55.546875 33.808594 53.90625 33.785156 51.773438 33.667969 C 51.023438 33.625 50.277344 33.582031 49.503906 33.539062 C 48.640625 33.492188 48.640625 33.492188 47.761719 33.445312 C 50.414062 30.035156 53.089844 28.34375 58.957031 28.886719 Z M 58.957031 28.886719 "/>
<path style=" stroke:none;fill-rule:nonzero;fill:rgb(21.568627%,21.568627%,21.568627%);fill-opacity:1;" d="M 235.820312 20.269531 C 238.035156 21.390625 238.679688 22.035156 239.550781 23.816406 C 239.625 24.492188 239.664062 25.171875 239.671875 25.847656 C 239.679688 26.253906 239.6875 26.660156 239.695312 27.078125 C 239.699219 27.515625 239.699219 27.953125 239.703125 28.402344 C 239.707031 28.855469 239.710938 29.308594 239.714844 29.773438 C 239.722656 30.730469 239.730469 31.6875 239.730469 32.640625 C 239.738281 34.101562 239.761719 35.558594 239.785156 37.015625 C 239.789062 37.945312 239.792969 38.875 239.796875 39.804688 C 239.804688 40.238281 239.816406 40.675781 239.824219 41.121094 C 239.8125 43.667969 239.417969 45.433594 237.3125 47.636719 C 234.976562 48.429688 232.363281 48.574219 229.851562 48.140625 C 227.429688 46.644531 226.664062 45.476562 226.503906 43.3125 C 226.492188 42.398438 226.5 41.484375 226.523438 40.570312 C 226.523438 40.085938 226.523438 39.601562 226.523438 39.101562 C 226.527344 38.078125 226.539062 37.054688 226.558594 36.03125 C 226.585938 34.464844 226.589844 32.902344 226.589844 31.335938 C 226.597656 30.339844 226.605469 29.34375 226.613281 28.347656 C 226.617188 27.878906 226.617188 27.414062 226.621094 26.933594 C 226.710938 22.742188 226.710938 22.742188 228.359375 20.777344 C 230.742188 19.96875 233.234375 20.011719 235.820312 20.269531 Z M 235.820312 20.269531 "/>
<path style=" stroke:none;fill-rule:nonzero;fill:rgb(21.568627%,72.156863%,51.372549%);fill-opacity:1;" d="M 10.449219 15.203125 C 11.265625 16.867188 11.171875 17.953125 11.054688 19.699219 C 11.003906 27.179688 16.34375 33.488281 22.386719 39.527344 C 16.644531 38.308594 12.3125 35.671875 9.195312 32.242188 C 6.578125 28.714844 3.566406 23.75 5.222656 19.761719 C 6.742188 18.09375 8.484375 16.640625 10.449219 15.203125 Z M 10.449219 15.203125 "/>
<path style=" stroke:none;fill-rule:nonzero;fill:rgb(96.078431%,69.803922%,4.705882%);fill-opacity:1;" d="M 53.730469 52.195312 C 53.730469 54.882812 50.988281 56.792969 48.507812 58.785156 C 42.789062 62.324219 34.828125 64.855469 26.949219 64.628906 C 23.925781 64.109375 21.597656 62.785156 19.402344 61.316406 C 19.402344 61.148438 19.402344 60.984375 19.402344 60.8125 C 20.515625 60.800781 20.515625 60.800781 21.648438 60.789062 C 33.957031 60.546875 44.496094 57.804688 53.730469 52.195312 Z M 53.730469 52.195312 "/>
<path style=" stroke:none;fill-rule:nonzero;fill:rgb(95.686275%,4.313725%,36.470588%);fill-opacity:1;" d="M 73.132812 31.417969 C 79.328125 32.601562 83.992188 36.46875 87.3125 40.035156 C 88.992188 42.144531 89.945312 44.230469 90.296875 46.621094 C 90.363281 46.976562 90.429688 47.332031 90.496094 47.699219 C 90.757812 50.089844 90.421875 51.382812 88.105469 53.242188 C 86.875 54.113281 86.875 54.113281 85.820312 54.730469 C 85.574219 54.730469 85.328125 54.730469 85.074219 54.730469 C 85.046875 54.019531 85.046875 54.019531 85.015625 53.296875 C 84.546875 46.128906 81.890625 40.542969 76.121094 34.460938 C 75.625 33.9375 75.625 33.9375 75.121094 33.40625 C 74.472656 32.734375 73.804688 32.074219 73.132812 31.417969 Z M 73.132812 31.417969 "/>
<path style=" stroke:none;fill-rule:nonzero;fill:rgb(3.921569%,78.823529%,96.470588%);fill-opacity:1;" d="M 72.472656 7.253906 C 73.796875 8 74.996094 8.742188 76.121094 9.628906 C 76.121094 9.796875 76.121094 9.960938 76.121094 10.136719 C 75.378906 10.140625 74.636719 10.148438 73.875 10.15625 C 62.949219 10.371094 54.558594 12.511719 45.523438 16.722656 C 44.285156 17.234375 43.042969 17.742188 41.792969 18.242188 C 43.816406 14.1875 48.886719 10.679688 54.359375 8.59375 C 59.480469 7.046875 67.277344 5.0625 72.472656 7.253906 Z M 72.472656 7.253906 "/>
<path style=" stroke:none;fill-rule:nonzero;fill:rgb(92.156863%,92.156863%,92.156863%);fill-opacity:1;" d="M 151.492188 35.472656 C 157.894531 35.472656 164.296875 35.472656 170.894531 35.472656 C 169.339844 37.589844 168.523438 38.054688 165.71875 39.304688 C 163.074219 40.476562 163.074219 40.476562 160.746094 41.902344 C 159.703125 42.566406 159.703125 42.566406 157.136719 42.820312 C 154.476562 42.566406 154.476562 42.566406 152.660156 41.585938 C 151.492188 40.035156 151.492188 40.035156 151.492188 35.472656 Z M 151.492188 35.472656 "/>
<path style=" stroke:none;fill-rule:nonzero;fill:rgb(21.960784%,21.960784%,21.960784%);fill-opacity:1;" d="M 235.820312 8.613281 C 237.480469 9.230469 237.480469 9.230469 238.804688 10.136719 C 239.175781 11.339844 239.175781 11.339844 239.132812 12.667969 C 239.132812 13.109375 239.128906 13.546875 239.128906 14 C 238.75 15.414062 238.210938 15.847656 236.566406 16.722656 C 234.261719 17.507812 232.390625 17.378906 229.851562 17.230469 C 228.03125 16.5 228.03125 16.5 226.867188 15.203125 C 226.292969 13.019531 226.316406 11.277344 227.984375 9.34375 C 230.558594 8.339844 232.917969 8.1875 235.820312 8.613281 Z M 235.820312 8.613281 "/>
<path style=" stroke:none;fill-rule:nonzero;fill:rgb(94.117647%,94.117647%,94.117647%);fill-opacity:1;" d="M 32.835938 0 C 38.109375 -0.300781 41.863281 -0.0351562 46.507812 1.730469 C 48.160156 2.789062 48.386719 3.542969 48.507812 5.066406 C 48.015625 5.402344 47.523438 5.738281 47.015625 6.082031 C 43.300781 5.9375 40.613281 4.992188 37.40625 3.769531 C 36.546875 3.445312 35.6875 3.121094 34.800781 2.785156 C 34.152344 2.535156 33.503906 2.285156 32.835938 2.027344 C 32.835938 1.359375 32.835938 0.6875 32.835938 0 Z M 32.835938 0 "/>
<path style=" stroke:none;fill-rule:nonzero;fill:rgb(85.098039%,85.098039%,85.098039%);fill-opacity:1;" d="M 195.523438 12.164062 C 195.769531 12.164062 196.015625 12.164062 196.269531 12.164062 C 196.46875 12.789062 196.667969 13.417969 196.875 14.0625 C 197.753906 16.414062 197.753906 16.414062 200 18.242188 C 202.691406 18.65625 202.691406 18.65625 205.222656 18.75 C 202.867188 21.3125 200.214844 23.734375 197.015625 25.84375 C 196.523438 25.84375 196.03125 25.84375 195.523438 25.84375 C 195.523438 21.328125 195.523438 16.8125 195.523438 12.164062 Z M 195.523438 12.164062 "/>
<path style=" stroke:none;fill-rule:nonzero;fill:rgb(96.862745%,96.862745%,96.862745%);fill-opacity:1;" d="M 158.957031 25.84375 C 160.726562 26.636719 160.726562 26.636719 161.941406 27.871094 C 161.941406 29.042969 161.941406 30.210938 161.941406 31.417969 C 158.492188 31.417969 155.042969 31.417969 151.492188 31.417969 C 151.492188 27.871094 151.492188 27.871094 152.707031 26.636719 C 155.011719 25.605469 156.242188 25.539062 158.957031 25.84375 Z M 158.957031 25.84375 "/>
<path style=" stroke:none;fill-rule:nonzero;fill:rgb(91.764706%,93.72549%,94.509804%);fill-opacity:1;" d="M 38.058594 5.066406 C 40.019531 5.542969 40.019531 5.542969 41.792969 6.082031 C 41.792969 7.433594 41.792969 8.785156 41.792969 10.136719 C 41.097656 10.1875 40.40625 10.238281 39.691406 10.292969 C 35.824219 10.660156 32.105469 11.429688 28.359375 12.164062 C 28.109375 11.03125 28.109375 11.03125 28.359375 9.628906 C 30.101562 8.511719 30.101562 8.511719 32.371094 7.476562 C 33.484375 6.953125 33.484375 6.953125 34.625 6.421875 C 36.566406 5.574219 36.566406 5.574219 38.058594 5.066406 Z M 38.058594 5.066406 "/>
<path style=" stroke:none;fill-rule:nonzero;fill:rgb(28.627451%,28.627451%,28.627451%);fill-opacity:1;" d="M 205.96875 54.730469 C 206.707031 54.730469 207.449219 54.730469 208.207031 54.730469 C 208.710938 55.710938 209.207031 56.691406 209.703125 57.675781 C 210.117188 58.496094 210.117188 58.496094 210.542969 59.332031 C 211.195312 60.8125 211.195312 60.8125 211.195312 62.332031 C 210.703125 62.332031 210.207031 62.332031 209.703125 62.332031 C 209.457031 61.496094 209.207031 60.660156 208.957031 59.796875 C 207.476562 59.796875 206 59.796875 204.476562 59.796875 C 204.230469 60.632812 203.984375 61.46875 203.730469 62.332031 C 203.238281 62.332031 202.746094 62.332031 202.238281 62.332031 C 203.007812 59.570312 203.914062 57.203125 205.96875 54.730469 Z M 205.96875 54.730469 "/>
<path style=" stroke:none;fill-rule:nonzero;fill:rgb(94.509804%,94.509804%,94.509804%);fill-opacity:1;" d="M 232.835938 0 C 237.269531 0 241.703125 0 246.269531 0 C 243.285156 2.535156 243.285156 2.535156 241.792969 3.039062 C 236.402344 3.335938 236.402344 3.335938 233.957031 2.089844 C 232.835938 1.011719 232.835938 1.011719 232.835938 0 Z M 232.835938 0 "/>
<path style=" stroke:none;fill-rule:nonzero;fill:rgb(94.509804%,94.509804%,94.509804%);fill-opacity:1;" d="M 270.148438 65.371094 C 271.132812 65.371094 272.121094 65.371094 273.132812 65.371094 C 274.730469 66.628906 274.730469 66.628906 276.304688 68.285156 C 276.832031 68.828125 277.359375 69.367188 277.902344 69.925781 C 279.105469 71.453125 279.105469 71.453125 279.105469 73.480469 C 276.78125 73.328125 276.121094 72.976562 274.523438 71.773438 C 274.003906 71.28125 273.484375 70.789062 272.949219 70.28125 C 272.421875 69.792969 271.894531 69.300781 271.351562 68.796875 C 270.148438 67.398438 270.148438 67.398438 270.148438 65.371094 Z M 270.148438 65.371094 "/>
<path style=" stroke:none;fill-rule:nonzero;fill:rgb(28.627451%,28.627451%,28.627451%);fill-opacity:1;" d="M 181.34375 54.730469 C 181.835938 54.730469 182.328125 54.730469 182.835938 54.730469 C 183.082031 55.566406 183.328125 56.402344 183.582031 57.261719 C 184.8125 56.425781 186.042969 55.589844 187.3125 54.730469 C 187.804688 54.898438 188.296875 55.0625 188.804688 55.238281 C 188.421875 55.445312 188.035156 55.65625 187.640625 55.871094 C 186.398438 56.6875 186.398438 56.6875 186.660156 57.707031 C 187.441406 58.996094 188.492188 60.125 189.550781 61.316406 C 189.550781 61.652344 189.550781 61.988281 189.550781 62.332031 C 187.3125 61.824219 187.3125 61.824219 186.054688 60.273438 C 185.730469 59.78125 185.40625 59.289062 185.074219 58.785156 C 184.335938 59.035156 184.335938 59.035156 183.582031 59.289062 C 183.089844 60.824219 183.089844 60.824219 182.835938 62.332031 C 182.34375 62.332031 181.851562 62.332031 181.34375 62.332031 C 181.34375 59.824219 181.34375 57.3125 181.34375 54.730469 Z M 181.34375 54.730469 "/>
<path style=" stroke:none;fill-rule:nonzero;fill:rgb(28.627451%,28.627451%,28.627451%);fill-opacity:1;" d="M 194.777344 54.730469 C 196.746094 54.730469 198.714844 54.730469 200.746094 54.730469 C 200.746094 54.898438 200.746094 55.0625 200.746094 55.238281 C 199.269531 55.238281 197.792969 55.238281 196.269531 55.238281 C 196.269531 56.074219 196.269531 56.910156 196.269531 57.769531 C 197.746094 57.769531 199.222656 57.769531 200.746094 57.769531 C 200.746094 58.105469 200.746094 58.4375 200.746094 58.785156 C 199.269531 58.785156 197.792969 58.785156 196.269531 58.785156 C 196.269531 59.621094 196.269531 60.457031 196.269531 61.316406 C 197.992188 61.316406 199.714844 61.316406 201.492188 61.316406 C 201.492188 61.652344 201.492188 61.988281 201.492188 62.332031 C 199.277344 62.332031 197.058594 62.332031 194.777344 62.332031 C 194.777344 59.824219 194.777344 57.3125 194.777344 54.730469 Z M 194.777344 54.730469 "/>
<path style=" stroke:none;fill-rule:nonzero;fill:rgb(28.627451%,28.627451%,28.627451%);fill-opacity:1;" d="M 172.386719 54.730469 C 174.359375 54.730469 176.328125 54.730469 178.359375 54.730469 C 178.359375 54.898438 178.359375 55.0625 178.359375 55.238281 C 176.878906 55.238281 175.402344 55.238281 173.878906 55.238281 C 173.878906 56.074219 173.878906 56.910156 173.878906 57.769531 C 175.359375 57.769531 176.835938 57.769531 178.359375 57.769531 C 178.359375 58.105469 178.359375 58.4375 178.359375 58.785156 C 176.878906 58.785156 175.402344 58.785156 173.878906 58.785156 C 173.878906 59.621094 173.878906 60.457031 173.878906 61.316406 C 175.605469 61.316406 177.328125 61.316406 179.105469 61.316406 C 179.105469 61.652344 179.105469 61.988281 179.105469 62.332031 C 176.886719 62.332031 174.671875 62.332031 172.386719 62.332031 C 172.386719 59.824219 172.386719 57.3125 172.386719 54.730469 Z M 172.386719 54.730469 "/>
<path style=" stroke:none;fill-rule:nonzero;fill:rgb(32.941176%,32.941176%,32.941176%);fill-opacity:1;" d="M 155.96875 54.222656 C 158.300781 54.414062 158.300781 54.414062 160.449219 54.730469 C 160.449219 55.0625 160.449219 55.398438 160.449219 55.742188 C 158.96875 55.742188 157.492188 55.742188 155.96875 55.742188 C 155.722656 56.246094 155.476562 56.746094 155.222656 57.261719 C 156.949219 57.597656 158.671875 57.933594 160.449219 58.277344 C 161.425781 60.515625 161.425781 60.515625 160.449219 61.761719 C 158.132812 62.644531 156.25 62.179688 153.730469 61.824219 C 153.730469 61.488281 153.730469 61.15625 153.730469 60.8125 C 155.457031 60.8125 157.179688 60.8125 158.957031 60.8125 C 159.203125 60.308594 159.449219 59.808594 159.703125 59.289062 C 158.992188 59.144531 158.285156 58.996094 157.554688 58.847656 C 155.222656 58.277344 155.222656 58.277344 153.730469 57.261719 C 154.003906 55.777344 154.375 55.304688 155.96875 54.222656 Z M 155.96875 54.222656 "/>
<path style=" stroke:none;fill-rule:nonzero;fill:rgb(98.039216%,98.039216%,98.039216%);fill-opacity:1;" d="M 196.269531 18.75 C 199.222656 19.753906 199.222656 19.753906 202.238281 20.777344 C 200.726562 22.832031 199.238281 24.140625 197.015625 25.84375 C 196.769531 25.84375 196.523438 25.84375 196.269531 25.84375 C 196.269531 23.503906 196.269531 21.164062 196.269531 18.75 Z M 196.269531 18.75 "/>
<path style=" stroke:none;fill-rule:nonzero;fill:rgb(32.54902%,32.54902%,32.54902%);fill-opacity:1;" d="M 214.925781 54.222656 C 217.257812 54.414062 217.257812 54.414062 219.402344 54.730469 C 219.402344 55.0625 219.402344 55.398438 219.402344 55.742188 C 217.679688 55.742188 215.957031 55.742188 214.179688 55.742188 C 214.179688 56.246094 214.179688 56.746094 214.179688 57.261719 C 214.886719 57.410156 215.59375 57.554688 216.324219 57.707031 C 218.65625 58.277344 218.65625 58.277344 220.148438 59.289062 C 219.875 60.777344 219.503906 61.25 217.910156 62.332031 C 216.042969 62.488281 216.042969 62.488281 214.179688 62.332031 C 213.6875 61.828125 213.195312 61.328125 212.6875 60.8125 C 214.410156 60.8125 216.132812 60.8125 217.910156 60.8125 C 216.914062 58.785156 215.300781 58.359375 212.6875 57.261719 C 213.113281 55.808594 213.328125 55.308594 214.925781 54.222656 Z M 214.925781 54.222656 "/>
<path style=" stroke:none;fill-rule:nonzero;fill:rgb(30.588235%,30.588235%,30.588235%);fill-opacity:1;" d="M 163.433594 54.730469 C 165.402344 54.730469 167.375 54.730469 169.402344 54.730469 C 169.402344 54.898438 169.402344 55.0625 169.402344 55.238281 C 167.925781 55.238281 166.449219 55.238281 164.925781 55.238281 C 164.925781 56.074219 164.925781 56.910156 164.925781 57.769531 C 166.15625 57.769531 167.386719 57.769531 168.65625 57.769531 C 168.65625 58.105469 168.65625 58.4375 168.65625 58.785156 C 167.425781 58.785156 166.195312 58.785156 164.925781 58.785156 C 164.925781 59.621094 164.925781 60.457031 164.925781 61.316406 C 166.648438 61.316406 168.375 61.316406 170.148438 61.316406 C 170.148438 61.652344 170.148438 61.988281 170.148438 62.332031 C 167.933594 62.332031 165.714844 62.332031 163.433594 62.332031 C 163.433594 59.824219 163.433594 57.3125 163.433594 54.730469 Z M 163.433594 54.730469 "/>
<path style=" stroke:none;fill-rule:nonzero;fill:rgb(29.019608%,29.019608%,29.019608%);fill-opacity:1;" d="M 222.386719 54.730469 C 224.359375 54.730469 226.328125 54.730469 228.359375 54.730469 C 228.359375 54.898438 228.359375 55.0625 228.359375 55.238281 C 226.878906 55.238281 225.402344 55.238281 223.878906 55.238281 C 223.878906 56.074219 223.878906 56.910156 223.878906 57.769531 C 225.113281 57.769531 226.34375 57.769531 227.613281 57.769531 C 227.613281 58.105469 227.613281 58.4375 227.613281 58.785156 C 226.378906 58.785156 225.148438 58.785156 223.878906 58.785156 C 223.878906 59.621094 223.878906 60.457031 223.878906 61.316406 C 225.359375 61.316406 226.835938 61.316406 228.359375 61.316406 C 228.359375 61.484375 228.359375 61.652344 228.359375 61.824219 C 226.386719 61.824219 224.417969 61.824219 222.386719 61.824219 C 222.386719 59.484375 222.386719 57.140625 222.386719 54.730469 Z M 222.386719 54.730469 "/>
<path style=" stroke:none;fill-rule:nonzero;fill:rgb(94.509804%,94.509804%,94.509804%);fill-opacity:1;" d="M 74.625 71.960938 C 77.453125 72.726562 77.617188 72.980469 79.105469 75 C 75.902344 75 72.703125 75 69.402344 75 C 69.648438 74.664062 69.894531 74.332031 70.148438 73.988281 C 72.0625 73.667969 72.0625 73.667969 73.878906 73.480469 C 74.125 72.976562 74.375 72.476562 74.625 71.960938 Z M 74.625 71.960938 "/>
<path style=" stroke:none;fill-rule:nonzero;fill:rgb(59.215686%,59.215686%,59.215686%);fill-opacity:1;" d="M 204.476562 56.25 C 205.214844 56.25 205.957031 56.25 206.714844 56.25 C 208.207031 57.769531 208.207031 57.769531 208.207031 59.289062 C 206.976562 59.289062 205.746094 59.289062 204.476562 59.289062 C 204.476562 60.125 204.476562 60.960938 204.476562 61.824219 C 203.738281 61.992188 203 62.160156 202.238281 62.332031 C 202.46875 61.601562 202.703125 60.875 202.9375 60.144531 C 203.066406 59.738281 203.199219 59.335938 203.332031 58.917969 C 203.730469 57.769531 203.730469 57.769531 204.476562 56.25 Z M 204.476562 56.25 "/>
<path style=" stroke:none;fill-rule:nonzero;fill:rgb(99.215686%,99.215686%,99.215686%);fill-opacity:1;" d="M 160.449219 35.980469 C 162.664062 35.980469 164.878906 35.980469 167.164062 35.980469 C 165.933594 36.816406 164.703125 37.652344 163.433594 38.511719 C 162.695312 38.347656 161.957031 38.179688 161.195312 38.007812 C 160.949219 37.335938 160.703125 36.667969 160.449219 35.980469 Z M 160.449219 35.980469 "/>
<path style=" stroke:none;fill-rule:nonzero;fill:rgb(37.647059%,37.647059%,37.647059%);fill-opacity:1;" d="M 195.523438 58.785156 C 195.769531 58.785156 196.015625 58.785156 196.269531 58.785156 C 196.269531 59.621094 196.269531 60.457031 196.269531 61.316406 C 197.992188 61.316406 199.714844 61.316406 201.492188 61.316406 C 201.492188 61.652344 201.492188 61.988281 201.492188 62.332031 C 199.277344 62.332031 197.058594 62.332031 194.777344 62.332031 C 195.023438 61.160156 195.269531 59.988281 195.523438 58.785156 Z M 195.523438 58.785156 "/>
<path style=" stroke:none;fill-rule:nonzero;fill:rgb(37.647059%,37.647059%,37.647059%);fill-opacity:1;" d="M 173.132812 58.785156 C 173.378906 58.785156 173.625 58.785156 173.878906 58.785156 C 173.878906 59.621094 173.878906 60.457031 173.878906 61.316406 C 175.605469 61.316406 177.328125 61.316406 179.105469 61.316406 C 179.105469 61.652344 179.105469 61.988281 179.105469 62.332031 C 176.886719 62.332031 174.671875 62.332031 172.386719 62.332031 C 172.632812 61.160156 172.878906 59.988281 173.132812 58.785156 Z M 173.132812 58.785156 "/>
<path style=" stroke:none;fill-rule:nonzero;fill:rgb(99.607843%,99.607843%,99.607843%);fill-opacity:1;" d="M 235.820312 0 C 238.285156 0 240.746094 0 243.285156 0 C 241.042969 1.519531 241.042969 1.519531 239.132812 1.710938 C 238.53125 1.648438 237.933594 1.585938 237.3125 1.519531 C 236.820312 1.019531 236.328125 0.515625 235.820312 0 Z M 235.820312 0 "/>
<path style=" stroke:none;fill-rule:nonzero;fill:rgb(36.862745%,36.862745%,36.862745%);fill-opacity:1;" d="M 205.96875 54.730469 C 206.707031 54.730469 207.449219 54.730469 208.207031 54.730469 C 208.457031 55.566406 208.703125 56.402344 208.957031 57.261719 C 208.214844 57.515625 208.214844 57.515625 207.460938 57.769531 C 207.214844 57.4375 206.96875 57.101562 206.714844 56.757812 C 205.976562 57.007812 205.976562 57.007812 205.222656 57.261719 C 205.46875 56.425781 205.714844 55.589844 205.96875 54.730469 Z M 205.96875 54.730469 "/>
<path style=" stroke:none;fill-rule:nonzero;fill:rgb(94.509804%,94.509804%,94.509804%);fill-opacity:1;" d="M 76.867188 66.890625 C 77.605469 67.226562 78.34375 67.5625 79.105469 67.90625 C 78.859375 68.40625 78.613281 68.910156 78.359375 69.425781 C 77.375 69.257812 76.386719 69.089844 75.375 68.917969 C 75.867188 68.25 76.359375 67.582031 76.867188 66.890625 Z M 76.867188 66.890625 "/>
</g>
</svg>
