<?xml version="1.0" encoding="UTF-8"?>
<svg xmlns="http://www.w3.org/2000/svg" xmlns:xlink="http://www.w3.org/1999/xlink" width="125px" height="65px" viewBox="0 0 125 65" version="1.1">
<g id="surface1">
<path style=" stroke:none;fill-rule:nonzero;fill:rgb(98.823529%,98.823529%,98.823529%);fill-opacity:1;" d="M 0 16.535156 L 125 16.535156 L 125 48.464844 L 0 48.464844 Z M 0 16.535156 "/>
<path style=" stroke:none;fill-rule:nonzero;fill:rgb(4.313725%,58.431373%,72.941176%);fill-opacity:1;" d="M 33.019531 18.15625 L 41.992188 18.15625 L 42.96875 18.21875 L 44.066406 18.40625 L 44.679688 18.597656 L 45.289062 18.851562 L 45.835938 19.171875 L 46.324219 19.582031 L 46.632812 19.964844 L 46.8125 20.28125 L 46.875 20.660156 L 46.875 37.703125 L 46.691406 38.179688 L 46.386719 38.625 L 45.960938 39.007812 L 45.347656 39.386719 L 44.554688 39.703125 L 43.519531 39.992188 L 42.664062 40.085938 L 41.199219 40.085938 L 40.40625 40.023438 L 39.671875 39.863281 L 39 39.640625 L 38.328125 39.355469 L 37.84375 39.070312 L 37.414062 38.71875 L 37.109375 38.371094 L 36.867188 37.894531 L 36.804688 37.453125 L 36.925781 36.976562 L 37.171875 36.53125 L 37.597656 36.085938 L 38.390625 35.578125 L 39.796875 34.847656 L 40.222656 34.59375 L 40.894531 34.183594 L 41.503906 33.707031 L 42.113281 33.101562 L 42.542969 32.53125 L 42.847656 31.867188 L 42.96875 31.421875 L 42.96875 30.4375 L 42.785156 29.769531 L 42.542969 29.292969 L 42.175781 28.753906 L 41.566406 28.152344 L 41.078125 27.769531 L 40.527344 27.421875 L 39.734375 26.976562 L 38.695312 26.566406 L 37.597656 26.214844 L 36.558594 25.960938 L 35.460938 25.773438 L 34.242188 25.644531 L 33.691406 25.613281 L 31.738281 25.613281 L 30.394531 25.738281 L 29.113281 25.929688 L 27.894531 26.183594 L 26.855469 26.5 L 26 26.851562 L 25.207031 27.199219 L 24.71875 27.421875 L 21.667969 29.007812 L 20.875 29.292969 L 20.140625 29.484375 L 19.289062 29.613281 L 18.25 29.613281 L 17.210938 29.484375 L 16.539062 29.292969 L 15.867188 29.007812 L 15.320312 28.722656 L 14.769531 28.246094 L 14.527344 27.898438 L 14.464844 27.738281 L 14.464844 27.039062 L 14.710938 26.5 L 15.136719 26.058594 L 15.867188 25.644531 L 16.296875 25.390625 L 18.796875 24.089844 L 19.164062 23.929688 L 19.46875 23.773438 L 19.714844 23.613281 L 20.203125 23.390625 L 28.808594 18.914062 L 29.722656 18.566406 L 30.578125 18.3125 L 31.25 18.21875 L 31.738281 18.1875 Z M 33.019531 18.15625 "/>
<path style=" stroke:none;fill-rule:nonzero;fill:rgb(6.666667%,70.196078%,54.509804%);fill-opacity:1;" d="M 8.851562 18.15625 L 9.828125 18.15625 L 10.925781 18.25 L 11.65625 18.375 L 12.328125 18.566406 L 13.121094 18.914062 L 13.734375 19.296875 L 14.160156 19.679688 L 14.527344 20.25 L 14.585938 20.375 L 14.585938 21.234375 L 14.34375 21.644531 L 13.855469 22.121094 L 13.183594 22.566406 L 12.757812 22.789062 L 12.328125 23.042969 L 11.414062 23.519531 L 10.984375 23.773438 L 10.316406 24.183594 L 9.828125 24.597656 L 9.277344 25.105469 L 8.972656 25.484375 L 8.605469 26.089844 L 8.363281 26.945312 L 8.300781 27.261719 L 8.300781 27.738281 L 8.546875 28.597656 L 8.789062 29.070312 L 9.15625 29.578125 L 9.828125 30.246094 L 10.316406 30.628906 L 10.984375 31.070312 L 11.597656 31.390625 L 12.207031 31.644531 L 12.9375 31.929688 L 14.464844 32.308594 L 16.296875 32.625 L 17.210938 32.722656 L 18.25 32.785156 L 18.980469 32.785156 L 20.933594 32.660156 L 22.460938 32.40625 L 23.4375 32.152344 L 24.109375 31.960938 L 24.839844 31.707031 L 25.453125 31.421875 L 26.125 31.136719 L 29.417969 29.421875 L 30.273438 29.070312 L 31.1875 28.820312 L 32.105469 28.691406 L 32.777344 28.660156 L 33.8125 28.753906 L 34.546875 28.914062 L 35.15625 29.105469 L 35.765625 29.390625 L 36.253906 29.675781 L 36.742188 30.183594 L 36.988281 30.59375 L 36.988281 31.199219 L 36.742188 31.675781 L 36.316406 32.117188 L 35.707031 32.53125 L 26.734375 37.195312 L 26.125 37.484375 L 24.71875 38.210938 L 24.292969 38.46875 L 22.703125 39.292969 L 22.035156 39.578125 L 21.179688 39.863281 L 20.507812 40.023438 L 19.652344 40.085938 L 11.414062 40.117188 L 9.644531 40.117188 L 8.667969 40.085938 L 7.75 39.957031 L 6.957031 39.734375 L 6.101562 39.386719 L 5.675781 39.132812 L 5.125 38.6875 L 4.820312 38.308594 L 4.640625 37.832031 L 4.578125 30.023438 L 4.578125 20.34375 L 4.761719 19.929688 L 5.125 19.488281 L 5.617188 19.136719 L 6.042969 18.882812 L 6.898438 18.535156 L 7.8125 18.28125 L 8.484375 18.1875 Z M 8.851562 18.15625 "/>
<path style=" stroke:none;fill-rule:nonzero;fill:rgb(19.215686%,20%,20.392157%);fill-opacity:1;" d="M 82.765625 20.660156 L 89.660156 20.660156 L 89.601562 20.820312 L 88.804688 21.613281 L 88.074219 22.21875 L 87.402344 22.882812 L 86.609375 23.550781 L 85.9375 24.214844 L 85.203125 24.851562 L 84.71875 25.296875 L 84.105469 25.867188 L 83.128906 26.722656 L 82.457031 27.359375 L 81.726562 28.023438 L 81.359375 28.34375 L 80.75 28.914062 L 80.566406 29.070312 L 80.628906 29.230469 L 81.421875 29.992188 L 81.96875 30.5 L 82.703125 31.136719 L 83.558594 31.960938 L 84.472656 32.753906 L 85.265625 33.515625 L 86.179688 34.308594 L 86.976562 35.070312 L 87.890625 35.863281 L 88.5625 36.5 L 89.171875 37.007812 L 89.660156 37.515625 L 89.722656 37.609375 L 83.617188 37.609375 L 82.945312 37.578125 L 82.582031 37.417969 L 81.789062 36.722656 L 81.054688 36.023438 L 80.503906 35.546875 L 79.527344 34.625 L 78.796875 33.992188 L 77.820312 33.070312 L 76.90625 32.308594 L 76.414062 31.800781 L 75.621094 31.101562 L 75.132812 30.691406 L 75.132812 31.707031 L 75.074219 36.6875 L 75.011719 37.578125 L 74.953125 37.609375 L 70.128906 37.609375 L 68.847656 37.578125 L 68.785156 35.292969 L 68.785156 20.945312 L 68.847656 20.726562 L 69.03125 20.695312 L 75.074219 20.695312 L 75.132812 27.484375 L 75.257812 27.484375 L 75.683594 27.136719 L 76.292969 26.566406 L 76.84375 26.058594 L 77.699219 25.296875 L 78.429688 24.628906 L 78.980469 24.121094 L 79.589844 23.582031 L 80.320312 22.882812 L 81.054688 22.25 L 82.273438 21.105469 L 82.640625 20.789062 Z M 82.765625 20.660156 "/>
<path style=" stroke:none;fill-rule:nonzero;fill:rgb(19.215686%,20%,20.392157%);fill-opacity:1;" d="M 103.820312 20.695312 L 119.996094 20.695312 L 120.054688 21.234375 L 120.054688 23.359375 L 119.933594 23.867188 L 119.140625 24.660156 L 117.371094 26.5 L 116.636719 27.199219 L 115.84375 27.992188 L 115.113281 28.691406 L 114.320312 29.484375 L 113.769531 30.023438 L 112.425781 31.421875 L 111.695312 32.117188 L 110.902344 32.914062 L 110.167969 33.609375 L 109.4375 34.339844 L 116.945312 34.339844 L 119.996094 34.371094 L 119.996094 37.578125 L 119.875 37.609375 L 105.042969 37.609375 L 101.378906 37.578125 L 101.378906 34.53125 L 101.625 34.214844 L 102.601562 33.292969 L 103.332031 32.5625 L 104.066406 31.867188 L 106.203125 29.644531 L 106.8125 29.039062 L 107.605469 28.3125 L 108.703125 27.230469 L 109.558594 26.34375 L 110.167969 25.738281 L 110.839844 25.007812 L 111.449219 24.40625 L 111.9375 23.929688 L 101.378906 23.929688 L 101.378906 20.726562 Z M 103.820312 20.695312 "/>
<path style=" stroke:none;fill-rule:nonzero;fill:rgb(19.215686%,20%,20.392157%);fill-opacity:1;" d="M 49.804688 20.695312 L 66.34375 20.695312 L 66.34375 22.121094 L 66.285156 23.898438 L 66.101562 23.929688 L 56.089844 23.960938 L 56.03125 23.992188 L 56.03125 27.453125 L 56.089844 27.515625 L 64.269531 27.546875 L 64.269531 28.753906 L 64.210938 30.722656 L 63.964844 30.753906 L 56.03125 30.785156 L 56.03125 34.183594 L 56.152344 34.308594 L 56.335938 34.339844 L 66.285156 34.371094 L 66.34375 34.46875 L 66.34375 36.5 L 66.285156 37.578125 L 66.164062 37.609375 L 50.292969 37.609375 L 49.804688 37.578125 L 49.742188 35.484375 L 49.742188 27.261719 Z M 49.804688 20.695312 "/>
<path style=" stroke:none;fill-rule:nonzero;fill:rgb(19.215686%,20%,20.392157%);fill-opacity:1;" d="M 92.652344 20.695312 L 98.816406 20.695312 L 98.875 23.328125 L 98.875 35.671875 L 98.816406 37.578125 L 92.652344 37.578125 Z M 92.652344 20.695312 "/>
<path style=" stroke:none;fill-rule:nonzero;fill:rgb(19.215686%,21.176471%,21.176471%);fill-opacity:1;" d="M 27.527344 44.085938 L 33.628906 44.085938 L 38.941406 44.117188 L 38.941406 44.496094 L 24.902344 44.496094 L 8.421875 44.464844 L 8.421875 44.148438 L 8.484375 44.117188 Z M 27.527344 44.085938 "/>
<path style=" stroke:none;fill-rule:nonzero;fill:rgb(18.823529%,22.352941%,21.960784%);fill-opacity:1;" d="M 107.421875 44.117188 L 115.234375 44.117188 L 116.089844 44.148438 L 116.148438 44.179688 L 116.148438 44.371094 L 116.027344 44.464844 L 111.9375 44.496094 L 85.632812 44.496094 L 85.632812 44.148438 Z M 107.421875 44.117188 "/>
<path style=" stroke:none;fill-rule:nonzero;fill:rgb(19.215686%,21.568627%,21.176471%);fill-opacity:1;" d="M 70.863281 42.65625 L 71.351562 42.65625 L 71.65625 42.910156 L 72.570312 44.371094 L 73.304688 45.542969 L 73.484375 45.796875 L 73.484375 45.925781 L 73 45.957031 L 72.753906 45.894531 L 72.328125 45.132812 L 72.144531 44.910156 L 69.824219 44.910156 L 69.640625 45.257812 L 69.273438 45.863281 L 69.152344 45.925781 L 68.601562 45.925781 L 68.847656 45.449219 L 69.886719 43.796875 L 70.554688 42.847656 L 70.738281 42.6875 Z M 70.863281 42.65625 "/>
<path style=" stroke:none;fill-rule:nonzero;fill:rgb(19.215686%,21.568627%,21.176471%);fill-opacity:1;" d="M 60.789062 42.625 L 61.035156 42.65625 L 60.914062 42.816406 L 60.304688 43.226562 L 59.570312 43.640625 L 59.265625 43.863281 L 59.328125 44.019531 L 59.8125 44.433594 L 60.425781 45.003906 L 61.28125 45.765625 L 61.339844 45.925781 L 60.851562 45.925781 L 60.546875 45.828125 L 59.9375 45.289062 L 59.082031 44.527344 L 58.777344 44.210938 L 58.226562 44.527344 L 57.738281 44.878906 L 57.679688 44.972656 L 57.617188 45.671875 L 57.554688 45.894531 L 57.066406 45.925781 L 56.945312 45.894531 L 56.882812 45.449219 L 56.882812 44.847656 L 56.945312 42.6875 L 57.066406 42.65625 L 57.554688 42.65625 L 57.617188 42.6875 L 57.679688 44.339844 L 58.105469 44.054688 L 58.65625 43.703125 L 59.328125 43.289062 L 59.996094 42.910156 L 60.484375 42.6875 Z M 60.789062 42.625 "/>
<path style=" stroke:none;fill-rule:nonzero;fill:rgb(18.823529%,22.352941%,21.960784%);fill-opacity:1;" d="M 79.589844 42.6875 L 82.824219 42.6875 L 83.191406 42.71875 L 83.128906 42.941406 L 83.070312 42.972656 L 81.359375 43.003906 L 80.320312 43.003906 L 80.382812 44.054688 L 82.703125 44.054688 L 82.765625 44.085938 L 82.703125 44.339844 L 80.382812 44.339844 L 80.382812 45.578125 L 83.25 45.578125 L 83.3125 45.609375 L 83.3125 45.863281 L 83.25 45.894531 L 79.589844 45.925781 Z M 79.589844 42.6875 "/>
<path style=" stroke:none;fill-rule:nonzero;fill:rgb(18.823529%,22.352941%,21.960784%);fill-opacity:1;" d="M 64.390625 42.6875 L 67.261719 42.6875 L 67.933594 42.71875 L 67.871094 42.941406 L 67.808594 42.972656 L 65.0625 43.003906 L 65.0625 44.054688 L 67.566406 44.054688 L 67.503906 44.304688 L 67.382812 44.339844 L 65.125 44.371094 L 65.0625 45.578125 L 68.054688 45.578125 L 67.992188 45.894531 L 66.039062 45.925781 L 64.332031 45.925781 L 64.332031 43.609375 Z M 64.390625 42.6875 "/>
<path style=" stroke:none;fill-rule:nonzero;fill:rgb(18.431373%,23.137255%,22.352941%);fill-opacity:1;" d="M 51.941406 42.6875 L 55.175781 42.6875 L 55.480469 42.71875 L 55.421875 42.941406 L 55.359375 42.972656 L 54.503906 43.003906 L 52.613281 43.039062 L 52.613281 44.019531 L 55.054688 44.054688 L 55.054688 44.304688 L 54.992188 44.339844 L 52.613281 44.371094 L 52.613281 45.609375 L 53.46875 45.578125 L 55.542969 45.578125 L 55.542969 45.894531 L 53.773438 45.925781 L 51.878906 45.925781 L 51.878906 42.816406 Z M 51.941406 42.6875 "/>
<path style=" stroke:none;fill-rule:nonzero;fill:rgb(18.823529%,22.352941%,21.960784%);fill-opacity:1;" d="M 46.875 42.6875 L 50.292969 42.6875 L 50.355469 42.71875 L 50.355469 42.941406 L 50.230469 43.003906 L 47.546875 43.003906 L 47.609375 44.019531 L 49.925781 44.054688 L 49.988281 44.085938 L 49.988281 44.273438 L 49.925781 44.339844 L 47.609375 44.371094 L 47.546875 45.578125 L 50.414062 45.578125 L 50.476562 45.609375 L 50.476562 45.863281 L 50.414062 45.894531 L 47.851562 45.925781 L 46.875 45.925781 L 46.8125 43.703125 Z M 46.875 42.6875 "/>
<path style=" stroke:none;fill-rule:nonzero;fill:rgb(18.823529%,21.568627%,21.176471%);fill-opacity:1;" d="M 75.683594 42.65625 L 76.722656 42.65625 L 77.515625 42.78125 L 78.003906 42.941406 L 78.0625 42.972656 L 78.0625 43.195312 L 78.003906 43.257812 L 77.453125 43.164062 L 76.660156 43.003906 L 75.929688 43.003906 L 75.5 43.101562 L 75.257812 43.257812 L 75.195312 43.324219 L 75.195312 43.640625 L 75.5 43.796875 L 75.988281 43.957031 L 77.390625 44.273438 L 77.882812 44.496094 L 78.125 44.65625 L 78.308594 44.910156 L 78.308594 45.132812 L 78.125 45.417969 L 77.882812 45.609375 L 77.390625 45.828125 L 76.84375 45.925781 L 76.171875 45.957031 L 75.316406 45.863281 L 74.707031 45.703125 L 74.097656 45.511719 L 74.28125 45.289062 L 74.707031 45.257812 L 75.316406 45.511719 L 75.683594 45.578125 L 76.597656 45.578125 L 77.148438 45.449219 L 77.453125 45.257812 L 77.515625 45.195312 L 77.515625 44.941406 L 77.210938 44.71875 L 76.476562 44.496094 L 75.4375 44.273438 L 74.890625 44.085938 L 74.644531 43.925781 L 74.460938 43.734375 L 74.402344 43.578125 L 74.402344 43.355469 L 74.644531 43.039062 L 74.890625 42.878906 L 75.5 42.6875 Z M 75.683594 42.65625 "/>
<path style=" stroke:none;fill-rule:nonzero;fill:rgb(19.215686%,21.176471%,21.176471%);fill-opacity:1;" d="M 43.03125 42.65625 L 43.882812 42.65625 L 44.617188 42.75 L 45.164062 42.910156 L 45.289062 42.972656 L 45.289062 43.164062 L 45.226562 43.226562 L 44.800781 43.195312 L 44.128906 43.039062 L 43.824219 43.003906 L 43.210938 43.003906 L 42.726562 43.101562 L 42.417969 43.289062 L 42.359375 43.578125 L 42.542969 43.734375 L 42.847656 43.863281 L 44.617188 44.242188 L 45.226562 44.527344 L 45.53125 44.847656 L 45.53125 45.195312 L 45.289062 45.480469 L 44.859375 45.734375 L 44.496094 45.863281 L 43.882812 45.957031 L 42.90625 45.925781 L 42.175781 45.796875 L 41.441406 45.578125 L 41.382812 45.417969 L 41.625 45.289062 L 41.992188 45.289062 L 42.480469 45.511719 L 42.90625 45.578125 L 43.882812 45.578125 L 44.3125 45.480469 L 44.679688 45.257812 L 44.738281 45.195312 L 44.738281 44.847656 L 44.433594 44.6875 L 43.703125 44.496094 L 42.664062 44.273438 L 42.175781 44.085938 L 41.808594 43.863281 L 41.625 43.640625 L 41.625 43.289062 L 41.929688 42.972656 L 42.417969 42.78125 Z M 43.03125 42.65625 "/>
<path style=" stroke:none;fill-rule:nonzero;fill:rgb(2.745098%,56.470588%,74.117647%);fill-opacity:1;" d="M 37.78125 36.054688 L 37.902344 36.054688 L 37.78125 36.246094 L 37.476562 36.53125 L 37.292969 37.070312 L 37.230469 37.195312 L 37.230469 37.640625 L 37.660156 38.117188 L 37.84375 38.148438 L 37.902344 38.246094 L 37.660156 38.308594 L 37.84375 38.46875 L 38.023438 38.46875 L 38.207031 38.625 L 38.148438 38.71875 L 38.328125 38.910156 L 38.636719 39.101562 L 39.367188 39.355469 L 39.671875 39.417969 L 39.671875 39.484375 L 39.917969 39.546875 L 40.160156 39.671875 L 40.527344 39.769531 L 41.078125 39.894531 L 41.566406 39.957031 L 41.929688 39.957031 L 41.929688 39.925781 L 42.417969 39.925781 L 42.417969 39.863281 L 42.726562 39.832031 L 42.90625 39.769531 L 42.785156 39.703125 L 43.210938 39.671875 L 43.457031 39.546875 L 43.882812 39.449219 L 44.066406 39.449219 L 44.066406 39.546875 L 44.800781 39.261719 L 45.53125 39.101562 L 45.777344 38.941406 L 45.898438 38.941406 L 46.019531 38.816406 L 46.082031 38.910156 L 45.65625 39.195312 L 45.347656 39.386719 L 44.554688 39.703125 L 43.519531 39.992188 L 42.664062 40.085938 L 41.199219 40.085938 L 40.40625 40.023438 L 39.671875 39.863281 L 39 39.640625 L 38.328125 39.355469 L 37.84375 39.070312 L 37.414062 38.71875 L 37.109375 38.371094 L 36.867188 37.894531 L 36.804688 37.453125 L 36.925781 36.976562 L 37.171875 36.53125 L 37.535156 36.148438 Z M 37.78125 36.054688 "/>
<path style=" stroke:none;fill-rule:nonzero;fill:rgb(2.745098%,56.862745%,74.117647%);fill-opacity:1;" d="M 29.234375 18.757812 L 29.359375 18.757812 L 29.234375 18.882812 L 28.808594 19.136719 L 28.441406 19.296875 L 28.015625 19.550781 L 27.832031 19.582031 L 27.832031 19.644531 L 27.710938 19.644531 L 27.585938 19.773438 L 27.28125 19.964844 L 27.160156 19.964844 L 27.039062 20.089844 L 25.574219 20.851562 L 25.328125 21.011719 L 25.207031 21.011719 L 25.207031 21.074219 L 25.085938 21.074219 L 25.085938 21.136719 L 24.964844 21.136719 L 24.964844 21.203125 L 24.78125 21.296875 L 24.65625 21.296875 L 24.65625 21.359375 L 24.351562 21.488281 L 24.171875 21.613281 L 24.046875 21.613281 L 23.988281 21.710938 L 23.863281 21.710938 L 23.742188 21.835938 L 20.386719 23.582031 L 20.265625 23.582031 L 20.140625 23.707031 L 19.835938 23.867188 L 19.714844 23.867188 L 19.652344 23.960938 L 19.53125 23.960938 L 19.53125 24.027344 L 19.226562 24.183594 L 18.796875 24.375 L 17.699219 24.945312 L 17.210938 25.167969 L 16.84375 25.390625 L 16.722656 25.390625 L 16.722656 25.453125 L 16.234375 25.675781 L 15.929688 25.804688 L 15.6875 25.835938 L 15.746094 25.707031 L 16.417969 25.328125 L 18.796875 24.089844 L 19.164062 23.929688 L 19.46875 23.773438 L 19.714844 23.613281 L 20.203125 23.390625 L 28.808594 18.914062 Z M 29.234375 18.757812 "/>
<path style=" stroke:none;fill-rule:nonzero;fill:rgb(2.745098%,56.862745%,74.117647%);fill-opacity:1;" d="M 31.617188 25.390625 L 33.691406 25.390625 L 35.21875 25.515625 L 36.5 25.738281 L 37.230469 25.898438 L 38.453125 26.246094 L 39.0625 26.4375 L 39.917969 26.789062 L 40.832031 27.261719 L 41.6875 27.867188 L 42.054688 28.121094 L 42.417969 28.628906 L 42.785156 29.199219 L 42.785156 29.328125 L 42.664062 29.328125 L 42.601562 29.390625 L 42.234375 28.820312 L 41.566406 28.152344 L 41.078125 27.769531 L 40.527344 27.421875 L 39.734375 26.976562 L 38.695312 26.566406 L 37.597656 26.214844 L 36.558594 25.960938 L 35.460938 25.773438 L 34.242188 25.644531 L 33.691406 25.613281 L 31.738281 25.613281 L 30.394531 25.738281 L 29.113281 25.929688 L 27.894531 26.183594 L 27.34375 26.34375 L 27.160156 26.3125 L 27.585938 26.121094 L 28.5625 25.898438 L 29.296875 25.738281 L 31.492188 25.421875 Z M 31.617188 25.390625 "/>
<path style=" stroke:none;fill-rule:nonzero;fill:rgb(99.215686%,99.215686%,99.215686%);fill-opacity:1;" d="M 71.046875 43.039062 L 71.167969 43.039062 L 71.65625 43.925781 L 72.023438 44.527344 L 72.023438 44.625 L 70.007812 44.65625 L 70.191406 44.304688 L 70.679688 43.511719 L 70.984375 43.070312 Z M 71.046875 43.039062 "/>
<path style=" stroke:none;fill-rule:nonzero;fill:rgb(2.745098%,56.470588%,74.509804%);fill-opacity:1;" d="M 14.585938 27.105469 L 14.710938 27.105469 L 14.710938 27.199219 L 14.832031 27.199219 L 14.890625 27.136719 L 14.953125 27.296875 L 15.136719 27.296875 L 15.320312 27.675781 L 15.320312 27.804688 L 15.199219 27.835938 L 15.257812 27.929688 L 15.441406 27.929688 L 15.5625 28.152344 L 15.503906 28.246094 L 15.625 28.46875 L 15.992188 28.691406 L 16.175781 28.722656 L 16.234375 28.851562 L 16.417969 28.882812 L 16.539062 29.007812 L 16.84375 29.105469 L 16.84375 29.199219 L 17.089844 29.261719 L 17.210938 29.421875 L 16.84375 29.390625 L 16.234375 29.167969 L 15.625 28.882812 L 15.199219 28.628906 L 14.710938 28.183594 L 14.527344 27.898438 L 14.527344 27.296875 Z M 14.585938 27.105469 "/>
<path style=" stroke:none;fill-rule:nonzero;fill:rgb(3.137255%,56.862745%,74.117647%);fill-opacity:1;" d="M 26.246094 26.628906 L 26.304688 26.722656 L 25.632812 27.007812 L 24.839844 27.359375 L 21.667969 29.007812 L 20.875 29.292969 L 20.140625 29.484375 L 19.773438 29.484375 L 19.898438 29.328125 L 20.875 29.070312 L 20.996094 29.070312 L 21.058594 28.976562 L 21.363281 28.914062 L 21.546875 28.820312 L 21.789062 28.820312 L 21.789062 28.753906 L 22.277344 28.53125 L 22.339844 28.40625 L 22.523438 28.34375 L 22.644531 28.34375 L 22.765625 28.214844 L 23.070312 28.023438 L 23.558594 27.804688 L 23.742188 27.707031 L 24.046875 27.675781 L 24.171875 27.546875 L 24.292969 27.515625 L 24.65625 27.296875 L 24.78125 27.199219 L 24.902344 27.199219 L 24.964844 27.105469 L 25.148438 27.039062 L 25.328125 27.039062 L 25.269531 26.945312 L 25.941406 26.722656 L 26 26.660156 Z M 26.246094 26.628906 "/>
<path style=" stroke:none;fill-rule:nonzero;fill:rgb(2.745098%,56.470588%,74.509804%);fill-opacity:1;" d="M 43.089844 32.308594 L 43.335938 32.4375 L 43.03125 32.816406 L 42.847656 32.914062 L 42.601562 33.199219 L 42.234375 33.484375 L 42.113281 33.484375 L 42.054688 33.578125 L 41.625 33.707031 L 41.6875 33.546875 L 42.296875 32.882812 L 42.542969 32.722656 L 42.664062 32.59375 L 42.785156 32.5625 L 42.847656 32.46875 L 42.96875 32.46875 Z M 43.089844 32.308594 "/>
<path style=" stroke:none;fill-rule:nonzero;fill:rgb(3.137255%,57.254902%,73.333333%);fill-opacity:1;" d="M 26.246094 26.628906 L 26.304688 26.722656 L 25.632812 27.007812 L 24.902344 27.328125 L 24.78125 27.199219 L 24.902344 27.199219 L 24.964844 27.105469 L 25.148438 27.039062 L 25.328125 27.039062 L 25.269531 26.945312 L 25.941406 26.722656 L 26 26.660156 Z M 26.246094 26.628906 "/>
<path style=" stroke:none;fill-rule:nonzero;fill:rgb(3.137255%,57.254902%,72.941176%);fill-opacity:1;" d="M 41.078125 34.117188 L 41.199219 34.148438 L 40.894531 34.40625 L 40.222656 34.753906 L 39.976562 34.785156 L 40.101562 34.65625 L 40.710938 34.308594 L 41.015625 34.148438 Z M 41.078125 34.117188 "/>
</g>
</svg>
