<?xml version="1.0" encoding="UTF-8"?>
<svg version="1.1" xmlns="http://www.w3.org/2000/svg" width="125" height="49">
<path d="M0 0 C41.25 0 82.5 0 125 0 C125 16.17 125 32.34 125 49 C83.75 49 42.5 49 0 49 C0 32.83 0 16.66 0 0 Z " fill="#F8F8F9" transform="translate(0,0)"/>
<path d="M0 0 C0.495 0.99 0.495 0.99 1 2 C-0.15000488 2.01401855 -0.15000488 2.01401855 -1.32324219 2.02832031 C-4.79948103 2.08202773 -8.27437474 2.16567576 -11.75 2.25 C-12.9565625 2.26417969 -14.163125 2.27835937 -15.40625 2.29296875 C-16.56640625 2.32519531 -17.7265625 2.35742188 -18.921875 2.390625 C-19.99018555 2.41157227 -21.05849609 2.43251953 -22.15917969 2.45410156 C-25.64138873 3.1232507 -26.83776313 4.24148192 -29 7 C-29.66400165 9.40222624 -29.66400165 9.40222624 -29.5625 11.9375 C-29.58441406 12.77152344 -29.60632812 13.60554688 -29.62890625 14.46484375 C-28.68160958 18.28344959 -27.15849482 19.68295747 -24 22 C-20.95328914 22.67539356 -17.98697945 22.69998788 -14.875 22.6875 C-13.26812452 22.70410523 -11.6613059 22.72852416 -10.0546875 22.76171875 C-9.34812012 22.76131592 -8.64155273 22.76091309 -7.91357422 22.76049805 C-6 23 -6 23 -3 25 C-2.625 28.5 -2.625 28.5 -3 32 C-6.63306058 34.42204038 -8.31819023 34.23302891 -12.63671875 34.1953125 C-14.58481445 34.18564453 -14.58481445 34.18564453 -16.57226562 34.17578125 C-17.94401307 34.1590706 -19.31575786 34.14214071 -20.6875 34.125 C-22.07095718 34.11496674 -23.45442127 34.10584149 -24.83789062 34.09765625 C-28.22543452 34.07404967 -31.61263072 34.04112037 -35 34 C-35.66169676 32.42991051 -36.31501218 30.85628731 -36.96484375 29.28125 C-37.32956787 28.40533203 -37.69429199 27.52941406 -38.07006836 26.62695312 C-40.23769914 20.50363804 -39.58246516 15.67171089 -36.9375 9.8125 C-33.26056746 3.16097034 -28.37145524 -1.19008072 -21.09375 -3.52734375 C-13.43879122 -5.25542213 -6.86533874 -3.73234685 0 0 Z " fill="#0DA3E9" transform="translate(40,4)"/>
<path d="M0 0 C1.20446777 0.01047363 2.40893555 0.02094727 3.64990234 0.03173828 C5.60283203 0.04140625 5.60283203 0.04140625 7.59521484 0.05126953 C8.9754258 0.06798149 10.35563413 0.08491139 11.73583984 0.10205078 C13.12385436 0.11208072 14.51187574 0.12120655 15.89990234 0.12939453 C19.3037201 0.15303215 22.70719491 0.18598211 26.11083984 0.22705078 C30.21820046 6.78412946 31.24095173 11.44513996 30.11083984 19.22705078 C27.3999447 27.77956509 22.44504573 32.77372669 14.79833984 37.10205078 C6.0143765 39.78190401 -0.74907246 38.10658194 -8.88916016 34.22705078 C-8.88916016 33.56705078 -8.88916016 32.90705078 -8.88916016 32.22705078 C-8.18831299 32.21246826 -7.48746582 32.19788574 -6.76538086 32.18286133 C-3.57693006 32.10819591 -0.38950503 32.01159603 2.79833984 31.91455078 C4.4525293 31.88071289 4.4525293 31.88071289 6.14013672 31.84619141 C7.74018555 31.79301758 7.74018555 31.79301758 9.37255859 31.73876953 C10.35184326 31.71258545 11.33112793 31.68640137 12.34008789 31.65942383 C15.55132527 31.15831347 17.47659057 30.10055825 20.11083984 28.22705078 C22.43486936 25.01767669 22.58654676 22.11199057 22.11083984 18.22705078 C19.95993533 14.88944033 18.90671185 13.49234145 15.11083984 12.22705078 C11.49685551 12.03189563 7.88904418 11.88192534 4.27099609 11.79736328 C-1.46151657 11.55892255 -1.46151657 11.55892255 -3.61376953 9.88867188 C-5.55650789 7.35760808 -5.21748696 5.31332269 -4.88916016 2.22705078 C-2.88916016 0.22705078 -2.88916016 0.22705078 0 0 Z " fill="#3D3D3D" transform="translate(19.88916015625,10.77294921875)"/>
<path d="M0 0 C2.02281329 1.2158399 3.8850543 2.37064019 5.640625 3.94921875 C5.640625 4.60921875 5.640625 5.26921875 5.640625 5.94921875 C5.09535156 5.73265625 4.55007812 5.51609375 3.98828125 5.29296875 C-1.47859942 3.2744282 -6.52556852 1.94945154 -12.359375 2.94921875 C-16.31901355 5.00236467 -19.07867812 7.11973918 -21.359375 10.94921875 C-22.12451734 16.67055335 -22.81182901 23.65109754 -19.546875 28.69921875 C-16.88889814 31.43313781 -15.28786367 32.86492338 -11.43359375 33.21484375 C-10.31597656 33.2096875 -9.19835937 33.20453125 -8.046875 33.19921875 C-6.93699219 33.204375 -5.82710937 33.20953125 -4.68359375 33.21484375 C-1.2797134 32.94285331 1.46074232 32.16151896 4.640625 30.94921875 C4.640625 27.31921875 4.640625 23.68921875 4.640625 19.94921875 C0.350625 19.94921875 -3.939375 19.94921875 -8.359375 19.94921875 C-8.359375 19.28921875 -8.359375 18.62921875 -8.359375 17.94921875 C-3.409375 17.94921875 1.540625 17.94921875 6.640625 17.94921875 C7.12890625 28.49609375 7.12890625 28.49609375 6.640625 31.94921875 C2.27512264 36.4244071 -1.59799392 37.12861178 -7.671875 37.26171875 C-13.12083385 37.20124196 -16.31835497 36.88921328 -20.359375 32.94921875 C-20.84148437 32.52125 -21.32359375 32.09328125 -21.8203125 31.65234375 C-26.40584756 26.73746086 -25.91922286 20.97785672 -25.92578125 14.5703125 C-25.10534662 9.32518901 -22.76703096 6.24859349 -18.921875 2.69921875 C-13.13950681 -1.24971562 -6.6462546 -2.96000412 0 0 Z " fill="#4D4D4D" transform="translate(115.359375,6.05078125)"/>
<path d="M0 0 C2.5625 2.1875 2.5625 2.1875 4.5625 5.1875 C3.5725 5.5175 2.5825 5.8475 1.5625 6.1875 C1.129375 5.713125 0.69625 5.23875 0.25 4.75 C-2.65105925 2.06383403 -5.5915705 2.00577241 -9.375 1.9375 C-10.22964844 1.91171875 -11.08429688 1.8859375 -11.96484375 1.859375 C-14.95714249 2.2564573 -16.28906227 3.09289556 -18.4375 5.1875 C-19.10416667 8.1875 -19.10416667 8.1875 -18.4375 11.1875 C-15.32021797 14.23750256 -12.20531144 14.87074587 -8 15.6875 C-2.47159992 16.7637123 1.53149435 18.15649435 5.5625 22.1875 C5.90784878 25.19696798 6.13038911 27.28124395 5.5625 30.1875 C3.125 33.125 3.125 33.125 0.5625 35.1875 C0.2325 35.5175 -0.0975 35.8475 -0.4375 36.1875 C-2.66295162 36.34077614 -4.89445159 36.40953074 -7.125 36.4375 C-8.95611328 36.47617188 -8.95611328 36.47617188 -10.82421875 36.515625 C-15.47395792 36.09337842 -18.7380508 34.60370767 -22.3125 31.625 C-23.4375 30.1875 -23.4375 30.1875 -23.4375 28.1875 C-20.4953786 28.64013406 -19.21136976 29.36517376 -16.8125 31.25 C-12.25019551 33.86910073 -8.58291451 33.87241374 -3.4375 33.1875 C-0.26961216 32.37566067 -0.26961216 32.37566067 1.5625 30.1875 C2.3125 26.6875 2.3125 26.6875 1.5625 23.1875 C-2.18004424 19.29258755 -7.51839391 18.83963828 -12.59375 17.81445312 C-16.98962303 16.83440307 -19.74918426 15.88563993 -22.4375 12.1875 C-23.23263425 7.17815421 -23.23263425 7.17815421 -22.4375 4.1875 C-17.18929445 -2.7198157 -7.3462215 -3.87346224 0 0 Z " fill="#454545" transform="translate(79.4375,6.8125)"/>
<path d="M0 0 C4.95 0 9.9 0 15 0 C15.48828125 10.546875 15.48828125 10.546875 15 14 C11.76240176 17.31894493 8.9884039 18.92806064 4.30078125 19.09765625 C3.31464844 19.08605469 2.32851562 19.07445313 1.3125 19.0625 C0.31863281 19.05347656 -0.67523438 19.04445313 -1.69921875 19.03515625 C-2.83810547 19.01775391 -2.83810547 19.01775391 -4 19 C-4.33 18.34 -4.66 17.68 -5 17 C-4.26394531 16.96261719 -3.52789062 16.92523438 -2.76953125 16.88671875 C4.57560617 16.41024006 4.57560617 16.41024006 11 13 C11.66 13 12.32 13 13 13 C13 9.37 13 5.74 13 2 C8.71 2 4.42 2 0 2 C0 1.34 0 0.68 0 0 Z " fill="#373737" transform="translate(107,24)"/>
<path d="M0 0 C0.33 0 0.66 0 1 0 C1.02578125 0.79664062 1.0515625 1.59328125 1.078125 2.4140625 C1.42019549 8.80456114 1.66740371 13.1576865 6 18 C9.40431947 20.26954631 11.16524202 20.36549949 15.1875 20.625 C16.27417969 20.69976562 17.36085938 20.77453125 18.48046875 20.8515625 C19.72763672 20.92503906 19.72763672 20.92503906 21 21 C21 21.33 21 21.66 21 22 C20.30132812 22.06058594 19.60265625 22.12117188 18.8828125 22.18359375 C17.97273438 22.26738281 17.06265625 22.35117187 16.125 22.4375 C15.22007813 22.51871094 14.31515625 22.59992187 13.3828125 22.68359375 C10.98889139 22.86989285 10.98889139 22.86989285 9 24 C3.87220625 21.01872456 1.24730231 17.96646236 -2 13 C-1.67 12.34 -1.34 11.68 -1 11 C-0.7724985 9.12943209 -0.59037189 7.25314042 -0.4375 5.375 C-0.35371094 4.37210938 -0.26992187 3.36921875 -0.18359375 2.3359375 C-0.12300781 1.56507812 -0.06242187 0.79421875 0 0 Z " fill="#5D5D5D" transform="translate(92,19)"/>
<path d="M0 0 C2.88674125 0.44411404 4.16966191 1.13572953 6.5 3 C10.99830918 6.2164076 16.66693017 5.82740874 22 6 C21.67 6.66 21.34 7.32 21 8 C7.31734317 8.59778598 7.31734317 8.59778598 1.125 3.4375 C0 2 0 2 0 0 Z " fill="#393939" transform="translate(56,35)"/>
<path d="M0 0 C0.99 0.33 1.98 0.66 3 1 C-0.11734325 4.33233244 -1.99155931 5.92733572 -6.69921875 6.09765625 C-7.68535156 6.08605469 -8.67148438 6.07445312 -9.6875 6.0625 C-10.68136719 6.05347656 -11.67523438 6.04445313 -12.69921875 6.03515625 C-13.83810547 6.01775391 -13.83810547 6.01775391 -15 6 C-15.33 5.34 -15.66 4.68 -16 4 C-14.89591797 3.94392578 -14.89591797 3.94392578 -13.76953125 3.88671875 C-8.31816521 3.51945367 -4.59428799 3.158573 0 0 Z " fill="#434343" transform="translate(118,37)"/>
<path d="M0 0 C4.80436782 -0.38434943 8.09024857 -0.47968712 12.4375 1.8125 C15 4 15 4 17 7 C16.01 7.33 15.02 7.66 14 8 C13.41798828 7.29423828 13.41798828 7.29423828 12.82421875 6.57421875 C10.52497076 4.59007113 8.78688189 4.31466837 5.8125 3.8125 C4.91144531 3.65394531 4.01039062 3.49539062 3.08203125 3.33203125 C2.39496094 3.22246094 1.70789063 3.11289063 1 3 C0.67 2.01 0.34 1.02 0 0 Z " fill="#626262" transform="translate(67,5)"/>
<path d="M0 0 C6.34027681 -0.6604455 10.24850119 0.16566746 15.56640625 3.7109375 C16.03949219 4.13632813 16.51257813 4.56171875 17 5 C17 5.66 17 6.32 17 7 C16.41992188 6.79503906 15.83984375 6.59007812 15.2421875 6.37890625 C11.65237296 5.1408349 8.33294269 4.04842803 4.5625 3.5 C3.2940625 3.2525 3.2940625 3.2525 2 3 C1.34 2.01 0.68 1.02 0 0 Z " fill="#737373" transform="translate(104,5)"/>
<path d="M0 0 C0.33 0.66 0.66 1.32 1 2 C0.70351562 2.57234375 0.40703125 3.1446875 0.1015625 3.734375 C-1.29880632 6.61456619 -1.41722918 9.06418083 -1.625 12.25 C-1.69976562 13.32765625 -1.77453125 14.4053125 -1.8515625 15.515625 C-1.90054688 16.33546875 -1.94953125 17.1553125 -2 18 C-2.66 17.67 -3.32 17.34 -4 17 C-4.10832169 14.91781638 -4.18573541 12.83400871 -4.25 10.75 C-4.29640625 9.58984375 -4.3428125 8.4296875 -4.390625 7.234375 C-3.93035506 3.42333987 -2.94851556 2.34488245 0 0 Z " fill="#3C3C3C" transform="translate(94,13)"/>
<path d="M0 0 C0.33 0 0.66 0 1 0 C1.268125 0.94875 1.53625 1.8975 1.8125 2.875 C2.74986588 6.25267273 2.74986588 6.25267273 6 8 C7.9896995 8.39013716 9.99019869 8.73202649 12 9 C9.37050204 10.71928713 8.12809053 11.01045637 4.9375 10.75 C2 10 2 10 -1 8 C-0.67 5.36 -0.34 2.72 0 0 Z " fill="#545454" transform="translate(59,13)"/>
<path d="M0 0 C0.33 0 0.66 0 1 0 C2.14507772 5.28497409 2.14507772 5.28497409 2 8 C-0.4375 10.5 -0.4375 10.5 -3 12 C-5 11 -5 11 -6 9 C-5.195625 8.62875 -4.39125 8.2575 -3.5625 7.875 C-0.68827104 6.1890663 -0.68827104 6.1890663 -0.1875 2.8125 C-0.125625 1.884375 -0.06375 0.95625 0 0 Z " fill="#565656" transform="translate(82,31)"/>
<path d="M0 0 C3.875 1.875 3.875 1.875 5 3 C5.14115161 5.67058851 5.04247107 8.32432238 5 11 C4.34 11 3.68 11 3 11 C0.85714286 3.57142857 0.85714286 3.57142857 0 0 Z " fill="#414141" transform="translate(80,26)"/>
<path d="M0 0 C3.79588866 0.54226981 5.47211993 2.20127563 8 5 C7.34 5.66 6.68 6.32 6 7 C3.95880212 5.38405168 1.95927063 3.7143618 0 2 C0 1.34 0 0.68 0 0 Z " fill="#494949" transform="translate(56,35)"/>
<path d="M0 0 C1.50433594 0.01353516 1.50433594 0.01353516 3.0390625 0.02734375 C3.80992188 0.03894531 4.58078125 0.05054688 5.375 0.0625 C5.375 0.3925 5.375 0.7225 5.375 1.0625 C3.95961283 1.40122513 2.54262037 1.73324624 1.125 2.0625 C0.33609375 2.248125 -0.4528125 2.43375 -1.265625 2.625 C-3.625 3.0625 -3.625 3.0625 -7.625 3.0625 C-7.625 2.4025 -7.625 1.7425 -7.625 1.0625 C-4.98041621 -0.25979189 -2.94738699 -0.03427194 0 0 Z " fill="#3D3D3D" transform="translate(106.625,5.9375)"/>
<path d="M0 0 C0.33 0 0.66 0 1 0 C1.33 4.62 1.66 9.24 2 14 C1.01 14.33 0.02 14.66 -1 15 C-1.33 13.68 -1.66 12.36 -2 11 C-1.67 11 -1.34 11 -1 11 C-0.67 7.37 -0.34 3.74 0 0 Z " fill="#818181" transform="translate(92,19)"/>
<path d="M0 0 C1.9375 1.25 1.9375 1.25 3.9375 4.25 C2.9475 4.58 1.9575 4.91 0.9375 5.25 C0.504375 4.79625 0.07125 4.3425 -0.375 3.875 C-2.17048342 2.04975666 -2.17048342 2.04975666 -5.0625 0.25 C-2.0625 -0.75 -2.0625 -0.75 0 0 Z " fill="#4F4F4F" transform="translate(80.0625,7.75)"/>
<path d="M0 0 C2.875 0.25 2.875 0.25 6 1 C7.375 3.0625 7.375 3.0625 8 5 C2.25 3.375 2.25 3.375 0 0 Z " fill="#494949" transform="translate(113,7)"/>
</svg>
